<svg xmlns="http://www.w3.org/2000/svg" width="400" height="400" fill="none" viewBox="0 0 400 400">
    <circle cx="199.5" cy="199.5" r="188.5" fill="#000"/>
    <path fill="#fff"
          d="M87.5 160.5c-16 31-21 102-24.5 141 31 39.5 81.52 70.057 143.5 68 57.955-1.923 105.5-35.5 130-68-3.5-51.5-13-127.5-22.5-141 21.5-13 24.365-46.461 6-63-17.962-16.176-51.5-9.5-61 10.5-41.5-17.5-89-14-117.5 0C130 86 99.865 82.086 82 97.5c-18.699 16.133-17 47.5 5.5 63"/>
    <path fill="#000"
          d="M175 217c0-12.026 13.974-16.5 26-16.5s26 4.474 26 16.5c0 13-15 21.5-21.5 21.5 12 23.5 24.5 5.5 28 10 3 2.5-10.5 21-32.5 21s-34.703-18.094-33-21.5c2.5-5 16 14.5 28.5-9.5-8-.5-21.5-8.5-21.5-21.5"/>
    <circle cx="154" cy="182" r="12" fill="#000"/>
    <circle cx="248" cy="182" r="12" fill="#000"/>
</svg>
